<svg xmlns="http://www.w3.org/2000/svg" viewBox="0 0 100 100" fill="currentColor">
  <path d="M30 36L31.1 30.6L34.1 26.1L38.6 23.1L44 22L56 22L61.4 23.1L65.9 26.1L68.9 30.6L70 36L70 70L68.9 75.4L65.9 79.9L61.4 82.9L56 84L44 84L38.6 82.9L34.1 79.9L31.1 75.4L30 70ZM42 14L42.3 12.5L43.2 11.2L44.5 10.3L46 10L54 10L55.5 10.3L56.8 11.2L57.7 12.5L58 14L58 20L57.7 21.5L56.8 22.8L55.5 23.7L54 24L46 24L44.5 23.7L43.2 22.8L42.3 21.5L42 20ZM72.7 24.7L75.3 25.4L77.8 26.6L80 28.1L81.9 30L83.4 32.3L84.6 34.7L85.3 37.3L85.5 40L85.3 42.7L84.6 45.3L83.4 47.8L81.9 50L80 51.9L77.8 53.4L75.3 54.6L72.7 55.3L71.5 48.4L72.9 48L74.3 47.4L75.5 46.5L76.5 45.5L77.4 44.3L78 42.9L78.4 41.5L78.5 40L78.4 38.5L78 37.1L77.4 35.8L76.5 34.5L75.5 33.5L74.3 32.6L72.9 32L71.5 31.6Z" />
</svg>
